# xmcd
#
# Track frame offsets:
#	150
#	29194
#	59535
#	66768
#	98526
#	104174
#	135734
#	187088
#	234860
#	255362
#	285799
#
# Disc length: 4394 seconds
#
# Revision: 1
# Processed by: cddbd v1.5.2PL0 Copyright (c) Steve Scherf et al.
# Submitted via: audiograbber 1.83.01
#
DISCID=9a11280b
DTITLE=Grateful Dead - 91-08-16 Shoreline Amphitheatre, Mountain View CA
DYEAR=1900
DGENRE=
TTITLE0=Jack Straw
TTITLE1=Bertha
TTITLE2=Tuning
TTITLE3=It's All Over Now
TTITLE4=Tuning
TTITLE5=Ramble On Rose
TTITLE6=Desolation Row
TTITLE7=Dark Star
TTITLE8=Promised Land
TTITLE9=Scarlet Begonias
TTITLE10=Victim Or The Crime
EXTD=
EXTT0=
EXTT1=
EXTT2=
EXTT3=
EXTT4=
EXTT5=
EXTT6=
EXTT7=
EXTT8=
EXTT9=
EXTT10=
PLAYORDER=
